<?xml version="1.0" standalone="no"?>
<!DOCTYPE svg PUBLIC "-//W3C//DTD SVG 20010904//EN"
 "http://www.w3.org/TR/2001/REC-SVG-20010904/DTD/svg10.dtd">
<svg version="1.0" xmlns="http://www.w3.org/2000/svg"
 width="400.000000pt" height="400.000000pt" viewBox="0 0 400.000000 400.000000"
 preserveAspectRatio="xMidYMid meet">
<metadata>
Created by potrace 1.14, written by Peter Selinger 2001-2017
</metadata>
<g transform="translate(0.000000,400.000000) scale(0.100000,-0.100000)"
fill="#000000" stroke="none">
<path d="M331 3989 c-157 -27 -294 -167 -321 -330 -14 -87 -14 -3255 0 -3330
30 -158 169 -293 327 -319 87 -15 3278 -13 3345 1 109 23 220 105 267 197 53
104 51 29 51 1783 0 1017 -4 1646 -10 1678 -24 126 -129 255 -247 303 l-58 23
-1650 1 c-944 1 -1673 -2 -1704 -7z m3393 -103 c32 -16 77 -47 98 -68 22 -22
52 -65 67 -97 l26 -56 0 -1345 0 -1345 -25 0 c-14 0 -28 -4 -31 -8 -3 -4 -17
2 -31 13 -31 24 -46 26 -28 5 18 -22 6 -30 -27 -17 -51 19 -83 23 -83 10 0
-13 5 -19 144 -164 l86 -90 0 -151 c0 -122 -3 -152 -14 -156 -19 -8 -33 -77
-17 -86 13 -8 5 -41 -10 -41 -4 0 -6 6 -3 13 6 18 -22 42 -31 27 -3 -5 -2 -10
2 -10 5 0 9 -9 10 -20 1 -11 -2 -20 -8 -20 -5 0 -9 7 -9 15 0 8 -4 15 -10 15
-13 0 -13 -6 1 -31 6 -11 15 -17 22 -13 7 4 4 -2 -5 -13 -10 -11 -18 -27 -18
-36 0 -26 -20 -20 -20 6 -1 20 -2 20 -16 -6 -19 -36 -39 -30 -40 12 0 22 -7
37 -20 43 -28 16 -92 85 -100 110 -3 12 -34 56 -66 97 -33 42 -69 95 -79 119
-10 24 -24 49 -31 56 -108 113 -131 135 -138 131 -4 -3 -10 2 -14 10 -7 19
-36 20 -36 1 0 -8 -13 -17 -30 -21 -16 -4 -30 -11 -30 -16 0 -6 -4 -7 -10 -4
-5 3 -10 1 -10 -4 0 -6 -7 -11 -15 -11 -8 0 -15 -5 -15 -11 0 -6 -9 -8 -22 -3
-49 15 -88 22 -82 13 3 -5 -18 -9 -46 -9 -49 0 -51 -1 -68 -38 -10 -21 -23
-37 -30 -34 -8 2 -12 -10 -12 -42 0 -32 -5 -48 -17 -55 -10 -6 -12 -11 -5 -11
6 0 12 -11 12 -25 0 -25 -14 -33 -25 -15 -11 18 -23 1 -17 -23 6 -22 24 -46
39 -50 4 -1 7 -6 5 -11 -5 -15 32 -36 40 -23 4 6 10 8 14 4 4 -4 3 -12 -4 -19
-8 -8 -6 -18 6 -37 l16 -26 -26 24 c-15 13 -46 50 -70 82 -23 33 -46 59 -50
59 -7 0 -118 -127 -220 -251 -20 -24 -47 -56 -60 -72 l-24 -27 -21 22 c-11 13
-44 68 -72 122 -28 55 -53 101 -55 103 -3 3 -196 -191 -265 -267 -22 -24 -43
-41 -47 -37 -4 3 -1 13 5 21 7 8 10 20 6 25 -3 6 0 8 8 5 8 -3 72 56 168 153
84 87 158 158 164 158 10 0 234 231 312 322 24 28 43 60 42 70 -1 11 26 47 66
88 37 39 125 140 195 225 71 85 155 186 188 224 l58 69 -33 50 c-30 45 -40 67
-29 67 2 0 14 -17 26 -37 15 -26 24 -33 30 -24 5 10 9 10 15 2 4 -7 16 -9 28
-6 12 4 18 3 12 -2 -36 -30 -37 -40 0 -80 19 -21 42 -51 50 -68 8 -16 37 -55
64 -85 41 -45 49 -50 45 -30 l-6 25 21 -25 c12 -15 18 -33 15 -45 -4 -14 -2
-16 4 -7 10 15 38 7 46 -14 11 -29 21 -13 18 28 l-4 41 31 -22 c18 -13 31 -17
31 -10 0 9 4 8 15 -1 12 -10 15 -9 15 6 0 14 2 16 9 6 12 -20 55 -10 66 16 5
12 14 22 19 22 5 0 29 -20 54 -45 52 -52 62 -57 33 -16 -13 18 -18 36 -14 47
4 11 3 15 -5 10 -6 -3 -14 -1 -18 5 -4 8 -3 9 4 5 7 -4 12 -2 12 3 0 6 11 11
25 11 18 0 23 4 19 15 -4 8 -1 15 6 15 7 0 10 6 7 14 -3 8 -1 16 4 18 12 4 -9
58 -23 58 -4 0 -8 6 -8 13 0 7 -9 18 -21 25 -12 8 -18 9 -14 3 3 -6 1 -11 -5
-11 -14 0 -31 17 -170 179 l-105 121 -60 -58 c-33 -31 -50 -46 -39 -32 12 14
64 77 116 140 53 63 107 126 121 139 25 23 25 24 9 50 -9 14 -84 106 -165 203
-110 132 -152 175 -164 171 -12 -5 -14 -3 -8 8 8 12 6 12 -8 0 -9 -7 -23 -11
-31 -8 -7 3 -19 0 -25 -6 -9 -9 -11 -8 -6 6 9 23 -16 23 -41 -2 -19 -18 -21
-16 -91 57 -40 41 -73 79 -73 85 0 6 7 2 15 -9 14 -18 16 -18 29 -1 10 14 15
15 19 5 4 -8 6 -7 6 5 1 9 -6 17 -14 17 -9 0 -15 10 -15 26 0 15 -4 23 -11 19
-6 -4 -8 -13 -5 -21 3 -8 1 -14 -4 -14 -5 0 -11 8 -14 18 -4 10 -19 32 -34 48
-44 45 -92 120 -92 144 0 17 -3 19 -20 10 -12 -6 -17 -17 -14 -28 5 -16 5 -16
-6 1 -8 13 -8 22 4 39 20 28 20 42 1 34 -11 -4 -15 1 -15 17 0 12 -5 29 -11
37 -8 12 -9 10 -4 -7 9 -34 -4 -28 -52 23 -29 30 -43 54 -43 72 0 21 -2 24
-10 12 -5 -8 -10 -10 -11 -5 -1 6 -3 19 -4 30 -1 11 -9 34 -17 50 -16 34 -22
94 -13 137 7 30 46 60 53 39 2 -6 10 -11 18 -11 10 0 14 12 14 43 -1 44 -14
69 -42 79 -16 7 -33 -16 -23 -32 3 -4 -9 -7 -25 -6 -17 1 -30 5 -30 9 0 4 0
12 0 18 0 6 7 8 16 5 8 -3 13 -2 10 3 -8 12 21 34 34 26 23 -14 8 12 -20 35
-17 14 -30 31 -30 38 0 7 -5 10 -11 7 -6 -4 -17 1 -24 11 -13 17 -16 17 -25 4
-5 -8 -10 -23 -10 -32 0 -14 -6 -16 -30 -11 -37 7 -40 -11 -8 -53 17 -23 13
-21 -18 8 -21 21 -61 55 -88 77 -26 21 -56 51 -65 65 -9 14 -74 88 -144 166
-115 126 -129 139 -147 128 -15 -10 -22 -9 -37 4 -24 22 -45 9 -45 -26 l0 -27
-22 20 c-30 28 -40 26 -21 -3 8 -13 12 -31 9 -40 -5 -14 -9 -15 -15 -4 -5 7
-9 -36 -9 -102 l1 -115 194 -200 c107 -110 195 -203 195 -207 0 -4 -86 78
-191 183 -105 104 -195 189 -200 189 -27 0 11 -45 201 -235 115 -115 210 -214
210 -218 0 -5 -55 47 -122 115 -68 68 -162 160 -209 206 l-86 82 -24 -27 c-13
-15 -16 -21 -6 -14 15 12 17 12 11 -3 -3 -9 -10 -16 -16 -16 -5 0 -6 -4 -3
-10 3 -5 1 -10 -5 -10 -8 0 -8 -6 0 -19 8 -15 7 -22 -4 -28 -25 -14 -23 -42 4
-56 39 -20 35 -40 -22 -107 -108 -126 -118 -142 -31 -52 49 50 93 92 96 92 4
0 7 -57 8 -127 1 -80 4 -119 9 -103 5 17 8 19 9 8 1 -10 6 -18 11 -18 6 0 10
-7 10 -16 0 -16 37 -53 54 -54 5 0 25 -10 45 -22 20 -13 40 -23 46 -24 5 0 18
-2 28 -2 11 -1 15 -7 11 -14 -4 -7 -3 -8 5 -4 16 10 51 -3 51 -20 0 -8 8 -14
18 -14 15 0 17 -6 14 -35 -2 -19 -8 -32 -13 -29 -13 8 -11 -10 4 -39 13 -25
15 -25 31 -9 16 16 17 15 7 -11 -15 -38 -14 -59 3 -82 12 -17 16 -17 47 -5 25
11 34 11 37 2 2 -7 10 -12 18 -12 8 0 14 -4 14 -10 0 -5 5 -10 10 -10 7 0 8
13 5 33 -6 29 -2 37 25 60 17 15 35 27 40 27 5 0 48 -43 96 -95 47 -52 95 -97
105 -100 10 -4 18 -12 16 -18 -1 -7 6 -11 16 -11 9 1 17 -4 17 -12 0 -8 5 -14
10 -14 21 0 26 -2 43 -18 19 -17 19 -46 2 -99 -6 -18 -3 -23 11 -23 10 0 29
-12 41 -27 l23 -28 -21 38 c-11 20 -17 37 -12 37 16 0 213 -261 213 -282 0
-18 -16 -6 -34 25 -17 29 -19 30 -27 12 -7 -18 -8 -17 -6 6 0 14 -11 41 -27
62 -35 45 -46 49 -15 5 25 -35 27 -71 5 -94 -16 -16 -66 -19 -66 -4 0 13 -143
200 -176 231 l-27 24 17 -30 c9 -16 45 -70 81 -118 36 -49 65 -93 65 -98 0 -5
-29 -9 -65 -9 -61 0 -65 -1 -64 -22 0 -13 3 -17 6 -10 3 8 26 12 63 12 l59 0
-10 -32 c-16 -49 -48 -108 -86 -154 -18 -23 -33 -47 -33 -53 0 -7 -14 -32 -30
-56 -17 -24 -30 -49 -30 -57 0 -7 15 8 33 34 69 98 192 263 201 270 6 4 14 4
18 2 4 -3 8 0 8 6 0 6 11 5 30 -5 34 -17 34 -18 19 -48 -5 -12 8 -2 30 23 22
25 41 41 41 36 0 -9 -89 -132 -174 -239 -26 -34 -60 -82 -74 -107 -14 -25 -46
-73 -70 -107 -42 -57 -47 -61 -75 -56 -27 6 -30 4 -24 -16 5 -22 -10 -71 -22
-71 -3 0 -18 15 -33 34 -23 29 -25 36 -14 51 7 10 18 15 24 11 7 -4 12 -3 12
3 0 6 8 8 18 5 14 -5 15 -4 2 5 -22 16 -60 14 -60 -4 0 -8 -4 -15 -9 -15 -5 0
-22 -12 -38 -27 -59 -56 -153 -134 -153 -127 0 5 12 22 28 38 l27 31 -31 -28
c-17 -15 -34 -24 -39 -20 -4 5 -5 -2 -2 -15 4 -19 2 -22 -15 -16 -16 5 -19 3
-14 -14 5 -14 -1 -24 -19 -36 -14 -9 -25 -23 -25 -31 0 -15 -88 -65 -114 -65
-8 0 -19 8 -25 17 -8 15 -16 13 -69 -25 -33 -23 -65 -42 -72 -42 -7 0 -9 -8
-5 -19 4 -14 0 -21 -15 -26 -18 -6 -20 -15 -20 -98 l0 -91 -164 168 c-90 93
-166 164 -170 158 -7 -12 -46 -4 -46 9 0 5 -6 9 -13 9 -8 0 -22 9 -32 20 -10
11 -22 17 -26 14 -5 -3 -12 2 -15 11 -5 13 -9 13 -22 3 -12 -10 -14 -10 -8 0
11 19 -3 35 -20 21 -11 -9 -14 -8 -14 5 0 9 -5 16 -11 16 -13 0 15 -48 38 -67
8 -6 13 -17 11 -23 -2 -7 -34 26 -70 72 -52 64 -63 84 -50 86 37 8 37 24 0 19
-21 -3 -36 -2 -33 2 6 10 -43 61 -59 61 -8 0 -24 14 -37 31 -13 17 -28 36 -34
43 -21 25 -45 78 -39 87 3 5 -3 12 -13 16 -22 8 -37 24 -41 43 -4 17 -21 30
-39 30 -7 0 -2 -15 12 -36 14 -20 25 -45 25 -55 0 -18 -33 -84 -51 -103 -16
-18 -9 -36 14 -36 27 0 153 -125 237 -235 29 -38 60 -76 69 -83 14 -12 13 -13
-9 -8 -17 4 -32 -2 -48 -17 l-24 -22 -20 25 c-11 14 -32 39 -46 55 -15 17 -47
57 -72 90 -24 33 -76 98 -115 145 -40 47 -98 122 -131 166 -32 45 -93 124
-135 175 -41 52 -84 107 -94 123 -18 27 -20 28 -28 9 -7 -15 0 -34 29 -79 30
-47 32 -55 13 -39 -60 52 -64 53 -38 9 13 -23 27 -41 30 -40 3 0 14 -5 23 -13
12 -10 14 -17 6 -25 -8 -8 -13 -7 -20 4 -8 12 -10 12 -16 -3 -3 -9 -12 -17
-20 -17 -17 0 -18 12 -1 29 10 10 9 12 -5 9 -10 -2 -34 15 -57 40 -23 24 -41
40 -41 36 0 -4 -26 27 -57 69 -60 81 -83 90 -39 15 23 -38 205 -238 218 -238
3 0 15 9 27 19 12 11 29 18 37 17 9 -1 41 -34 73 -73 31 -38 109 -134 174
-212 109 -133 125 -161 93 -161 -7 0 -21 -9 -31 -20 -24 -26 -2 -27 34 0 l28
19 35 -37 c55 -58 68 -83 61 -111 -6 -23 -5 -25 10 -12 22 17 40 3 68 -50 23
-47 24 -58 2 -74 -9 -7 -17 -19 -19 -27 -1 -9 -4 -24 -8 -34 -7 -24 11 -44
212 -247 129 -130 158 -154 165 -141 9 15 11 14 23 -7 7 -13 13 -18 14 -11 0
21 20 3 20 -19 0 -10 7 -19 15 -19 10 0 15 -10 15 -28 0 -22 24 -51 121 -147
l122 -120 -806 -3 c-785 -2 -807 -2 -859 18 -72 27 -130 71 -168 128 -64 97
-60 -16 -58 1797 l3 1650 27 51 c37 70 72 110 125 141 95 55 -11 52 1773 50
l1655 -2 59 -29z m-1553 -153 c13 -16 12 -17 -3 -4 -10 7 -18 15 -18 17 0 8 8
3 21 -13z m79 -183 c0 -5 -4 -10 -10 -10 -5 0 -10 5 -10 10 0 6 5 10 10 10 6
0 10 -4 10 -10z m557 -332 c-3 -8 -6 -5 -6 6 -1 11 2 17 5 13 3 -3 4 -12 1
-19z m-290 -30 c-3 -8 -6 -5 -6 6 -1 11 2 17 5 13 3 -3 4 -12 1 -19z m193
-103 c7 -8 8 -15 2 -15 -5 0 -15 7 -22 15 -7 8 -8 15 -2 15 5 0 15 -7 22 -15z
m-269 -152 c13 -16 12 -17 -3 -4 -10 7 -18 15 -18 17 0 8 8 3 21 -13z m293
-168 c3 -9 -1 -18 -9 -21 -8 -4 -15 -10 -15 -15 0 -16 23 -10 47 13 23 22 31
15 14 -11 -12 -18 29 -44 41 -27 10 15 37 -24 31 -44 -4 -12 -3 -12 5 -1 14
19 65 -49 56 -75 -5 -15 -4 -16 4 -4 9 12 13 9 22 -15 6 -17 12 -38 13 -47 1
-10 4 -18 8 -18 4 0 9 -7 13 -15 7 -19 -43 -17 -63 3 -7 7 -16 11 -18 8 -8 -8
24 -36 40 -36 8 0 22 -11 31 -24 15 -23 15 -25 -4 -23 -11 1 -20 7 -20 14 0 7
-5 13 -11 13 -6 0 -9 -7 -5 -15 8 -22 -2 -18 -34 12 -16 15 -27 31 -24 35 3 5
0 7 -7 6 -6 -2 -14 3 -16 10 -3 6 0 12 7 12 17 0 -6 37 -69 110 -67 78 -80 89
-106 90 -16 1 -14 4 8 12 18 7 27 17 27 32 0 36 23 50 34 21z m-404 -25 c0 -5
-4 -10 -10 -10 -5 0 -10 5 -10 10 0 6 5 10 10 10 6 0 10 -4 10 -10z m152 -160
c-18 -43 -32 -52 -32 -20 0 17 32 60 44 60 3 0 -3 -18 -12 -40z m502 -136 c3
-8 2 -12 -4 -9 -6 3 -10 10 -10 16 0 14 7 11 14 -7z m139 -91 c51 -28 87 -65
87 -89 0 -33 -18 -39 -44 -15 -12 12 -25 19 -28 16 -3 -3 -11 3 -19 12 -13 16
-12 17 4 4 25 -20 21 -5 -13 45 -34 49 -33 52 13 27z m-83 -123 c0 -5 -4 -10
-10 -10 -5 0 -10 5 -10 10 0 6 5 10 10 10 6 0 10 -4 10 -10z m386 -42 c10 -31
-9 -41 -35 -17 -17 16 -19 24 -11 34 15 18 37 9 46 -17z m-176 -403 c0 -1 -12
-2 -26 -2 -17 0 -22 2 -13 7 10 7 39 3 39 -5z m-7 -22 c-7 -2 -19 -2 -25 0 -7
3 -2 5 12 5 14 0 19 -2 13 -5z m-13 -23 c13 -9 13 -10 0 -10 -13 0 -13 -1 0
-10 13 -8 13 -10 -1 -10 -9 0 -24 9 -34 20 -17 19 -17 20 1 20 10 0 26 -5 34
-10z m195 0 c-3 -5 -13 -10 -21 -10 -16 0 -19 -16 -4 -25 13 -8 1 -35 -16 -35
-7 0 -11 -6 -8 -14 6 -16 -32 -46 -58 -46 -10 0 -18 6 -18 13 0 16 36 51 53
53 40 4 40 4 27 19 -10 13 -10 19 5 35 18 20 51 28 40 10z m-245 -55 c0 -2 -3
-10 -6 -19 -5 -13 -9 -12 -25 7 -23 27 -24 20 -3 -22 16 -32 16 -34 -11 -60
-15 -14 -24 -20 -20 -12 5 9 2 18 -7 25 -29 21 -30 51 -3 74 14 12 25 27 25
32 0 6 11 3 25 -6 14 -9 25 -18 25 -19z m-80 -119 c-1 -11 -10 -32 -21 -45
-16 -20 -22 -22 -32 -11 -7 7 -7 10 -1 7 13 -7 42 25 36 41 -2 7 -13 12 -23
12 -11 0 -17 -4 -14 -10 3 -5 1 -10 -4 -10 -16 0 -13 38 2 47 8 4 17 17 21 27
6 18 8 18 21 -8 8 -16 15 -38 15 -50z m-1790 -221 c11 -13 10 -14 -4 -9 -9 3
-16 10 -16 15 0 13 6 11 20 -6z m2152 -22 c15 -15 28 -34 28 -42 0 -10 -12 -3
-35 19 -33 32 -43 50 -28 50 4 0 20 -12 35 -27z m-597 -43 c3 -6 -1 -7 -9 -4
-18 7 -21 14 -7 14 6 0 13 -4 16 -10z m-57 -65 c-3 -3 -9 2 -12 12 -6 14 -5
15 5 6 7 -7 10 -15 7 -18z m-28 -15 c0 -5 -4 -10 -10 -10 -5 0 -10 5 -10 10 0
6 5 10 10 10 6 0 10 -4 10 -10z m-23 -18 c7 -4 10 -17 6 -30 -3 -12 -9 -19
-14 -16 -5 3 -9 0 -9 -6 0 -6 -5 -8 -10 -5 -6 4 -4 13 6 23 11 10 13 17 5 20
-12 4 -15 22 -3 22 4 0 12 -4 19 -8z m-1392 -132 c3 -5 1 -10 -4 -10 -6 0 -11
5 -11 10 0 6 2 10 4 10 3 0 8 -4 11 -10z m60 0 c3 -6 -1 -7 -9 -4 -18 7 -21
14 -7 14 6 0 13 -4 16 -10z m145 -14 c0 -2 -7 -9 -15 -16 -13 -11 -14 -10 -9
4 5 14 24 23 24 12z m-213 -28 c-3 -8 -6 -5 -6 6 -1 11 2 17 5 13 3 -3 4 -12
1 -19z m124 -25 c13 -16 12 -17 -3 -4 -17 13 -22 21 -14 21 2 0 10 -8 17 -17z
m79 -48 c13 -14 21 -25 18 -25 -2 0 -15 11 -28 25 -13 14 -21 25 -18 25 2 0
15 -11 28 -25z m438 -454 c-14 -5 -259 240 -345 344 -48 58 -8 22 145 -130
116 -115 206 -212 200 -214z m-377 311 c-6 -11 -11 -30 -11 -41 0 -23 -7 -26
-30 -11 -8 5 -10 10 -4 10 7 0 15 7 18 16 3 8 2 12 -4 9 -6 -3 -10 1 -10 10 0
9 9 19 20 22 11 3 17 10 13 17 -4 8 -3 8 6 0 10 -9 10 -17 2 -32z m-54 10
c-11 -12 -14 -22 -7 -30 6 -7 2 -6 -7 2 -13 12 -14 18 -3 30 7 9 17 16 23 16
5 0 3 -8 -6 -18z m-177 -6 c-14 -7 -38 -16 -55 -19 -26 -5 -25 -4 10 13 45 22
85 27 45 6z m279 -20 c9 -10 7 -19 -7 -36 -20 -25 -42 -20 -42 9 0 17 18 41
31 41 4 0 12 -6 18 -14z m641 10 c0 -2 -8 -10 -17 -17 -16 -13 -17 -12 -4 4
13 16 21 21 21 13z m-573 -348 c-3 -8 -6 -5 -6 6 -1 11 2 17 5 13 3 -3 4 -12
1 -19z m1188 12 c3 -5 1 -10 -4 -10 -6 0 -11 5 -11 10 0 6 2 10 4 10 3 0 8 -4
11 -10z m-1145 -56 c0 -19 -16 -18 -24 2 -11 27 -7 37 9 24 8 -7 15 -19 15
-26z m442 -6 c-7 -7 -12 -8 -12 -2 0 14 12 26 19 19 2 -3 -1 -11 -7 -17z
m-392 8 c0 -3 -4 -8 -10 -11 -5 -3 -10 -1 -10 4 0 6 5 11 10 11 6 0 10 -2 10
-4z m-30 -77 c0 -5 9 -18 21 -30 11 -11 18 -23 16 -26 -6 -6 -67 56 -67 68 0
5 7 6 15 3 8 -4 15 -10 15 -15z m1300 -149 c16 -16 30 -33 30 -37 0 -3 10 -17
22 -30 12 -13 17 -23 11 -23 -12 0 -103 99 -103 112 0 14 8 9 40 -22z m210
-21 c0 -6 -4 -7 -10 -4 -5 3 -10 11 -10 16 0 6 5 7 10 4 6 -3 10 -11 10 -16z
m35 -29 c3 -5 1 -10 -4 -10 -6 0 -11 5 -11 10 0 6 2 10 4 10 3 0 8 -4 11 -10z"/>
<path d="M2781 3014 c0 -11 3 -14 6 -6 3 7 2 16 -1 19 -3 4 -6 -2 -5 -13z"/>
<path d="M1979 2756 c6 -7 9 -20 5 -29 -4 -12 -1 -14 14 -10 12 3 28 -3 39
-14 11 -10 30 -27 43 -38 l23 -20 -11 21 c-13 25 -100 104 -114 104 -7 0 -6
-5 1 -14z"/>
<path d="M2596 2351 c-3 -4 21 -35 53 -69 33 -33 57 -63 53 -66 -3 -3 0 -6 6
-6 15 0 16 17 2 25 -6 4 -29 29 -50 56 -22 27 -43 50 -47 49 -4 0 -7 5 -5 10
3 12 -5 13 -12 1z"/>
<path d="M2930 2126 c0 -2 8 -10 18 -17 15 -13 16 -12 3 4 -13 16 -21 21 -21
13z"/>
<path d="M885 1980 c-3 -5 -14 -10 -23 -10 -10 0 -23 -9 -30 -20 -11 -19 -23
-20 -199 -20 -102 0 -184 -2 -182 -4 2 -2 88 -6 190 -8 l186 -3 94 -113 c86
-105 150 -172 104 -111 -11 15 -27 37 -35 49 -8 13 -25 35 -37 50 -13 15 -23
31 -23 35 0 3 -7 13 -15 21 -8 8 -13 29 -11 49 1 23 -3 36 -12 40 -12 5 -12 8
2 24 11 12 13 21 7 25 -5 4 -12 2 -16 -4z"/>
<path d="M958 1923 c7 -3 16 -2 19 1 4 3 -2 6 -13 5 -11 0 -14 -3 -6 -6z"/>
<path d="M738 1588 c-11 -9 -14 -24 -11 -50 3 -21 8 -38 12 -38 4 0 20 14 36
30 27 29 24 44 -4 18 -11 -10 -13 -10 -7 0 4 7 1 12 -8 12 -9 0 -16 5 -16 11
0 6 9 9 19 6 14 -3 18 -1 14 9 -6 17 -15 18 -35 2z"/>
<path d="M2600 1452 c0 -12 19 -26 26 -19 2 2 -2 10 -11 17 -9 8 -15 8 -15 2z"/>
<path d="M865 1440 c3 -5 11 -10 16 -10 6 0 7 5 4 10 -3 6 -11 10 -16 10 -6 0
-7 -4 -4 -10z"/>
<path d="M2530 1385 c-7 -9 -8 -15 -2 -15 5 0 12 7 16 15 3 8 4 15 2 15 -2 0
-9 -7 -16 -15z"/>
<path d="M2479 1338 c-12 -23 -12 -23 10 -4 23 21 26 26 11 26 -5 0 -15 -10
-21 -22z"/>
<path d="M3900 1325 c-1 -5 -2 -14 -1 -19 1 -5 -3 -12 -10 -16 -6 -4 -9 -14
-7 -21 7 -20 30 27 25 49 -3 9 -6 13 -7 7z"/>
<path d="M3876 1137 c3 -10 9 -15 12 -12 3 3 0 11 -7 18 -10 9 -11 8 -5 -6z"/>
<path d="M3710 856 c0 -2 7 -7 16 -10 8 -3 12 -2 9 4 -6 10 -25 14 -25 6z"/>
<path d="M3711 829 c-1 -12 -9 -15 -28 -13 -28 4 -28 4 1 -6 35 -11 40 -8 33
17 -4 14 -5 14 -6 2z"/>
<path d="M3680 741 c0 -6 5 -13 10 -16 6 -3 10 1 10 9 0 9 -4 16 -10 16 -5 0
-10 -4 -10 -9z"/>
<path d="M3742 725 c11 -26 30 -35 26 -13 -3 14 -23 38 -32 38 -3 0 0 -11 6
-25z"/>
<path d="M2917 723 c-11 -10 -8 -43 3 -43 6 0 10 11 10 25 0 26 -2 29 -13 18z"/>
<path d="M3786 618 c3 -5 10 -6 15 -3 13 9 11 12 -6 12 -8 0 -12 -4 -9 -9z"/>
<path d="M3651 574 c0 -11 3 -14 6 -6 3 7 2 16 -1 19 -3 4 -6 -2 -5 -13z"/>
<path d="M2693 477 c-51 -74 -53 -80 -9 -33 25 28 46 53 46 58 0 17 -16 7 -37
-25z"/>
<path d="M3851 384 c-17 -37 -8 -39 13 -4 9 17 13 30 8 30 -5 0 -14 -12 -21
-26z"/>
<path d="M3328 1643 c7 -3 16 -2 19 1 4 3 -2 6 -13 5 -11 0 -14 -3 -6 -6z"/>
<path d="M3115 1633 c15 -32 25 -42 25 -24 0 5 -9 19 -20 32 l-21 24 16 -32z"/>
</g>
</svg>
